<?xml version="1.0" encoding="UTF-8"?>
<svg width="210px" height="35px" viewBox="0 0 210 35" version="1.1" xmlns="http://www.w3.org/2000/svg" xmlns:xlink="http://www.w3.org/1999/xlink">
    <!-- Generator: Sketch 52.5 (67469) - http://www.bohemiancoding.com/sketch -->
    <title>Openhouse.ai logo</title>
    <desc>Created with Sketch.</desc>
    <g id="Page-1" stroke="none" stroke-width="1" fill="none" fill-rule="evenodd">
        <g id="Builder-Page" transform="translate(-48.000000, -36.000000)">
            <g id="Openhouse.ai-logo" transform="translate(48.000000, 36.000000)">
                <g id="logo-font-02" transform="translate(48.000000, 11.000000)" fill="#F8B42D" fill-rule="nonzero">
                    <path d="M7.77464789,15.3239437 C3.42084507,15.3239437 0,11.9526761 0,7.66197183 C0,3.37126761 3.42084507,0 7.77464789,0 C12.1284507,0 15.5492958,3.37126761 15.5492958,7.66197183 C15.5492958,11.9526761 11.9729577,15.3239437 7.77464789,15.3239437 Z M7.77464789,3.06478873 C5.13126761,3.06478873 3.10985915,5.05690141 3.10985915,7.66197183 C3.10985915,10.2670423 5.13126761,12.2591549 7.77464789,12.2591549 C10.4180282,12.2591549 12.4394366,10.2670423 12.4394366,7.66197183 C12.4394366,5.05690141 10.2625352,3.06478873 7.77464789,3.06478873 Z" id="Shape"></path>
                    <path d="M23.3114078,0 C18.9646251,0 15.5492958,3.24160347 15.5492958,7.36728061 L15.5492958,19.1549296 L18.6541406,19.1549296 L18.6541406,13.2611051 C22.0694699,15.7659805 26.8819793,15.0292524 29.5210974,11.787649 C32.1602155,8.5460455 31.3840043,3.97833153 27.968675,1.47345612 C26.5714949,0.589382449 25.0190724,0 23.3114078,0 Z M23.3239437,11.4929577 C20.5704225,11.4929577 18.4647887,9.62535211 18.4647887,7.18309859 C18.4647887,4.74084507 20.5704225,2.87323944 23.3239437,2.87323944 C26.0774648,2.87323944 28.1830986,4.74084507 28.1830986,7.18309859 C28.1830986,9.62535211 25.915493,11.4929577 23.3239437,11.4929577 Z" id="Shape"></path>
                    <path d="M40.3966197,9.1943662 L47.3938028,9.1943662 C47.5492958,8.73464789 47.5492958,8.12169014 47.5492958,7.66197183 C47.5492958,3.37126761 44.1284507,0 39.7746479,0 C35.4208451,0 32,3.37126761 32,7.66197183 C32,11.9526761 35.4208451,15.3239437 39.7746479,15.3239437 C40.7076056,15.3239437 41.6405634,15.1707042 42.5735211,14.8642254 L41.4850704,11.9526761 C41.0185915,12.1059155 40.3966197,12.2591549 39.7746479,12.2591549 C37.1312676,12.2591549 35.1098592,10.2670423 35.1098592,7.66197183 C35.1098592,5.05690141 37.1312676,3.06478873 39.7746479,3.06478873 C41.7960563,3.06478873 43.5064789,4.29070423 44.1284507,6.12957746 L40.3966197,6.12957746 L40.3966197,9.1943662 Z" id="Shape"></path>
                    <path d="M56.2253521,0 C51.8715493,0 48.4507042,3.37126761 48.4507042,7.66197183 L48.4507042,15.3239437 L51.5605634,15.3239437 L51.5605634,7.66197183 C51.5605634,5.05690141 53.5819718,3.06478873 56.2253521,3.06478873 C58.8687324,3.06478873 60.8901408,5.05690141 60.8901408,7.66197183 L60.8901408,15.3239437 L64,15.3239437 L64,7.66197183 C64,3.37126761 60.423662,0 56.2253521,0 Z" id="Shape"></path>
                </g>
                <g id="logo-font-02" transform="translate(116.000000, 7.964789)" fill-rule="nonzero">
                    <path d="M6.90570175,4.39766082 C5.38644737,4.39766082 4.00530702,4.94736842 2.7622807,5.77192982 L2.7622807,1.64912281 L0,1.64912281 L0,11.2690058 L0,18.1403509 L2.7622807,18.1403509 L2.7622807,11.2690058 C2.7622807,8.93274854 4.55776316,7.14619883 6.90570175,7.14619883 C9.25364035,7.14619883 11.0491228,8.93274854 11.0491228,11.2690058 L11.0491228,18.1403509 L13.8114035,18.1403509 L13.8114035,11.2690058 C13.8114035,7.55847953 10.6347807,4.39766082 6.90570175,4.39766082 Z" id="Shape" fill="#F8B42D"></path>
                    <path d="M20.7171053,18.1403509 C16.8499123,18.1403509 13.8114035,15.1018421 13.8114035,11.2346491 C13.8114035,7.36745614 16.8499123,4.32894737 20.7171053,4.32894737 C24.5842982,4.32894737 27.622807,7.36745614 27.622807,11.2346491 C27.622807,15.1018421 24.4461842,18.1403509 20.7171053,18.1403509 Z M20.7171053,7.09122807 C18.3691667,7.09122807 16.5736842,8.88671053 16.5736842,11.2346491 C16.5736842,13.5825877 18.3691667,15.3780702 20.7171053,15.3780702 C23.0650439,15.3780702 24.8605263,13.5825877 24.8605263,11.2346491 C24.8605263,8.88671053 22.9269298,7.09122807 20.7171053,7.09122807 Z" id="Shape" fill="#F8B42D"></path>
                    <path d="M39.4964912,4.32894737 L39.4964912,11.2346491 C39.4964912,13.5825877 37.7010088,15.3780702 35.3530702,15.3780702 C33.0051316,15.3780702 31.2096491,13.5825877 31.2096491,11.2346491 L31.2096491,4.32894737 L28.4473684,4.32894737 L28.4473684,11.2346491 C28.4473684,15.1018421 31.4858772,18.1403509 35.3530702,18.1403509 C39.2202632,18.1403509 42.2587719,15.1018421 42.2587719,11.2346491 L42.2587719,4.32894737 L39.4964912,4.32894737 Z" id="Shape" fill="#F8B42D"></path>
                    <path d="M47.2267544,7.09122807 L56.8947368,7.09122807 L56.8947368,4.32894737 L47.2267544,4.32894737 C44.8788158,4.32894737 43.0833333,6.12442982 43.0833333,8.47236842 C43.0833333,10.820307 44.8788158,12.6157895 47.2267544,12.6157895 L52.7513158,12.6157895 C53.1656579,12.6157895 53.441886,12.7539035 53.718114,13.0301316 C54.2705702,13.5825877 54.2705702,14.4112719 53.718114,14.9637281 C53.441886,15.2399561 53.1656579,15.3780702 52.7513158,15.3780702 L43.0833333,15.3780702 L43.0833333,18.1403509 L52.7513158,18.1403509 C55.0992544,18.1403509 56.8947368,16.3448684 56.8947368,13.9969298 C56.8947368,11.6489912 55.0992544,9.85350877 52.7513158,9.85350877 L47.2267544,9.85350877 C46.3980702,9.85350877 45.845614,9.30105263 45.845614,8.47236842 C45.845614,7.64368421 46.3980702,7.09122807 47.2267544,7.09122807 Z" id="Shape" fill="#F8B42D"></path>
                    <path d="M65.1774561,12.6157895 L71.3925877,12.6157895 C71.5307018,12.2014474 71.5307018,11.6489912 71.5307018,11.2346491 C71.5307018,7.36745614 68.492193,4.32894737 64.625,4.32894737 C60.757807,4.32894737 57.7192982,7.36745614 57.7192982,11.2346491 C57.7192982,15.1018421 60.757807,18.1403509 64.625,18.1403509 C65.4536842,18.1403509 66.2823684,18.0022368 67.1110526,17.7260088 L66.1442544,15.1018421 C65.7299123,15.2399561 65.1774561,15.3780702 64.625,15.3780702 C62.2770614,15.3780702 60.4815789,13.5825877 60.4815789,11.2346491 C60.4815789,8.88671053 62.2770614,7.09122807 64.625,7.09122807 C66.4204825,7.09122807 67.9397368,8.19614035 68.492193,9.85350877 L65.1774561,9.85350877 L65.1774561,12.6157895 Z" id="Shape" fill="#F8B42D"></path>
                    <path d="M82.7653509,4.32894737 C78.8981579,4.32894737 75.8596491,7.36745614 75.8596491,11.2346491 C75.8596491,15.1018421 78.8981579,18.1403509 82.7653509,18.1403509 C84.2846053,18.1403509 85.6657456,17.5878947 86.9087719,16.7592105 L86.9087719,18.1403509 L89.6710526,18.1403509 L89.6710526,11.2346491 C89.6710526,7.50557018 86.4944298,4.32894737 82.7653509,4.32894737 Z M82.7653509,15.3780702 C80.4174123,15.3780702 78.6219298,13.5825877 78.6219298,11.2346491 C78.6219298,8.88671053 80.4174123,7.09122807 82.7653509,7.09122807 C85.1132895,7.09122807 86.9087719,8.88671053 86.9087719,11.2346491 C86.9087719,13.5825877 84.9751754,15.3780702 82.7653509,15.3780702 Z" id="Shape" fill="#4A4A4A" opacity="0.858186141"></path>
                    <polygon id="Rectangle-path" fill="#4A4A4A" opacity="0.858186141" points="91.3201754 4.32894737 94 4.32894737 94 18.1403509 91.3201754 18.1403509"></polygon>
                    <polygon id="Rectangle-path" fill="#4A4A4A" opacity="0.858186141" points="91.3201754 0 94 0 94 2.67982456 91.3201754 2.67982456"></polygon>
                    <polygon id="Rectangle-path" fill="#4A4A4A" opacity="0.858186141" points="71.5307018 15.4605263 74.2105263 15.4605263 74.2105263 18.1403509 71.5307018 18.1403509"></polygon>
                </g>
                <g id="Group-3">
                    <circle id="Oval-3" fill="#F8B42D" cx="17.5" cy="17.5" r="17.5"></circle>
                    <polygon id="Path-9" fill="#FFFFFF" points="21.9740925 12.4951827 30.4317523 27.4887005 23.3062159 27.4887005 18.2705245 18.892787"></polygon>
                    <polygon id="Path-2" fill="#FFFFFF" points="17.9809782 5.47274954 21.5757629 11.8179064 12.6701064 27.5548993 5.48524569 27.5548993"></polygon>
                    <circle id="Oval" fill="#F8B42D" cx="17.8975904" cy="12.8975904" r="1.89759036"></circle>
                </g>
            </g>
        </g>
    </g>
</svg>